<svg width="25" height="25" viewBox="0 0 25 25" fill="none" xmlns="http://www.w3.org/2000/svg">
<path d="M20.3125 8.125H18.75V16.875H20.3125C20.8203 16.875 21.25 17.3047 21.25 17.8125C21.25 18.3594 20.8203 18.75 20.3125 18.75H18.75V20.3125C18.75 20.8594 18.3203 21.25 17.8125 21.25C17.2656 21.25 16.875 20.8594 16.875 20.3125V18.75H8.125V20.3125C8.125 20.8594 7.69531 21.25 7.1875 21.25C6.64062 21.25 6.25 20.8594 6.25 20.3125V18.75H4.6875C4.14062 18.75 3.75 18.3594 3.75 17.8125C3.75 17.3047 4.14062 16.875 4.6875 16.875H6.25V8.125H4.6875C4.14062 8.125 3.75 7.73438 3.75 7.1875C3.75 6.67969 4.14062 6.25 4.6875 6.25H6.25V4.6875C6.25 4.17969 6.64062 3.75 7.1875 3.75C7.69531 3.75 8.125 4.17969 8.125 4.6875V6.25H16.875V4.6875C16.875 4.17969 17.2656 3.75 17.8125 3.75C18.3203 3.75 18.75 4.17969 18.75 4.6875V6.25H20.3125C20.8203 6.25 21.25 6.67969 21.25 7.1875C21.25 7.73438 20.8203 8.125 20.3125 8.125ZM8.125 16.875H16.875V8.125H8.125V16.875Z" fill="#292929"/>
</svg>
