<svg width="25" height="25" viewBox="0 0 25 25" fill="none" xmlns="http://www.w3.org/2000/svg">
<path d="M3.59375 3.20312C4.76562 2.22656 6.36719 2.34375 7.46094 3.16406C8.59375 2.34375 10.1953 2.26562 11.3672 3.20312C12.7734 4.41406 12.8516 6.48438 11.5625 7.77344L8.51562 10.8594C7.96875 11.4062 7.03125 11.4453 6.44531 10.8203L3.39844 7.77344C2.10938 6.48438 2.1875 4.375 3.59375 3.20312ZM4.80469 4.64844C4.21875 5.11719 4.21875 5.9375 4.72656 6.44531L7.5 9.21875L10.2344 6.44531C10.7422 5.9375 10.7422 5.11719 10.1562 4.64844C9.6875 4.25781 8.94531 4.29688 8.47656 4.76562L7.5 5.82031L6.52344 4.80469C6.01562 4.29688 5.23438 4.29688 4.80469 4.64844ZM22.5 9.375C22.5 10.4297 21.3672 11.25 20 11.25C18.5938 11.25 17.5 10.4297 17.5 9.375C17.5 8.35938 18.5938 7.5 20 7.5C20.1953 7.5 20.3906 7.53906 20.625 7.57812V4.60938L16.25 5.46875V10.625C16.25 11.6797 15.1172 12.5 13.75 12.5C12.3438 12.5 11.25 11.6797 11.25 10.625C11.25 9.60938 12.3438 8.75 13.75 8.75C13.9453 8.75 14.1406 8.78906 14.375 8.82812V4.6875C14.375 4.25781 14.6875 3.86719 15.1172 3.78906L21.3672 2.53906C21.6406 2.5 21.9141 2.53906 22.1484 2.73438C22.3438 2.89062 22.5 3.16406 22.5 3.4375V9.375ZM10 17.8125C10 18.8672 9.14062 19.6875 8.125 19.6875C7.07031 19.6875 6.25 18.8672 6.25 17.8125C6.25 16.7969 7.07031 15.9375 8.125 15.9375C9.14062 15.9375 10 16.7969 10 17.8125ZM13.75 16.25V20C13.75 21.4062 12.6172 22.5 11.25 22.5H5C3.59375 22.5 2.5 21.4062 2.5 20V16.25C2.5 14.8828 3.59375 13.75 4.96094 13.75L5.27344 13.2031C5.46875 12.7734 5.89844 12.5 6.36719 12.5H9.84375C10.3125 12.5 10.7422 12.7734 10.9375 13.2031L11.25 13.75C12.6172 13.75 13.75 14.8828 13.75 16.25ZM6.13281 15.625H4.96094C4.64844 15.625 4.375 15.9375 4.375 16.25V20C4.375 20.3516 4.64844 20.625 5 20.625H11.25C11.5625 20.625 11.875 20.3516 11.875 20V16.25C11.875 15.9375 11.5625 15.625 11.25 15.625H10.0781L9.45312 14.375H6.75781L6.13281 15.625ZM20.9766 12.6562C21.2109 12.8125 21.2891 13.125 21.1719 13.3984L19.6875 16.875H21.875C22.1094 16.875 22.3438 17.0703 22.4219 17.3047C22.5391 17.5391 22.4609 17.8125 22.2656 17.9688L17.2656 22.3438C17.0312 22.5391 16.7188 22.5781 16.4844 22.3828C16.25 22.2266 16.1719 21.9141 16.2891 21.6406L17.7734 18.125H15.625C15.3516 18.125 15.1172 17.9688 15.0391 17.7344C14.9219 17.5 15 17.2266 15.1953 17.0312L20.1953 12.6562C20.4297 12.4609 20.7422 12.4609 20.9766 12.6562Z" fill="#292929"/>
</svg>
