<svg width="25" height="24" viewBox="0 0 25 24" fill="none" xmlns="http://www.w3.org/2000/svg">
<path d="M13.75 6.21875L19.25 11.4688C19.4062 11.625 19.5 11.8125 19.5 12.0312C19.5 12.2188 19.4062 12.4062 19.25 12.5625L13.75 17.8125C13.4688 18.0938 12.9688 18.0938 12.6875 17.7812C12.4062 17.5 12.4062 17 12.7188 16.7188L16.875 12.7812H6.25C5.8125 12.7812 5.5 12.4375 5.5 12.0312C5.5 11.5938 5.8125 11.2812 6.25 11.2812H16.875L12.7188 7.3125C12.4062 7.03125 12.4062 6.53125 12.6875 6.25C12.9688 5.9375 13.4375 5.9375 13.75 6.21875Z" fill="white"/>
</svg>
