<svg width="24" height="24" viewBox="0 0 24 24" fill="none" xmlns="http://www.w3.org/2000/svg">
<path d="M18.9688 12C18.9688 12.4375 18.625 12.7812 18.2188 12.7812H7.59375L11.75 16.7188C12.0625 17 12.0625 17.5 11.7812 17.7812C11.5 18.0938 11.0312 18.0938 10.7188 17.8125L5.21875 12.5625C5.0625 12.4062 5 12.2188 5 12C5 11.8125 5.0625 11.625 5.21875 11.4688L10.7188 6.21875C11.0312 5.9375 11.5 5.9375 11.7812 6.25C12.0625 6.53125 12.0625 7.03125 11.75 7.3125L7.59375 11.25H18.2188C18.6562 11.25 18.9688 11.5938 18.9688 12Z" fill="#292929"/>
</svg>
