<svg width="24" height="24" viewBox="0 0 24 24" fill="none" xmlns="http://www.w3.org/2000/svg">
<path d="M10 16.25C10 16.6875 9.65625 17 9.25 17C8.8125 17 8.5 16.6875 8.5 16.25V13.75C8.5 13.3438 8.8125 13 9.25 13C9.65625 13 10 13.3438 10 13.75V16.25ZM12 13C12.4062 13 12.75 13.3438 12.75 13.75V16.25C12.75 16.6875 12.4062 17 12 17C11.5625 17 11.25 16.6875 11.25 16.25V13.75C11.25 13.3438 11.5625 13 12 13ZM15.5 16.25C15.5 16.6875 15.1562 17 14.75 17C14.3125 17 14 16.6875 14 16.25V13.75C14 13.3438 14.3125 13 14.75 13C15.1562 13 15.5 13.3438 15.5 13.75V16.25ZM10.5938 4.09375C10.9375 4.28125 11.0938 4.75 10.9062 5.125L8.34375 10H15.625L13.0625 5.125C12.875 4.75 13.0312 4.28125 13.375 4.09375C13.75 3.90625 14.2188 4.0625 14.4062 4.40625L17.3125 10H20.25C20.6562 10 21 10.3438 21 10.75C21 11.1875 20.6562 11.5 20.25 11.5H19.625L17.875 18.5C17.625 19.375 16.8438 20 15.9375 20H8.03125C7.125 20 6.34375 19.375 6.09375 18.5L4.375 11.5H3.75C3.3125 11.5 3 11.1875 3 10.75C3 10.3438 3.3125 10 3.75 10H6.65625L9.5625 4.40625C9.75 4.0625 10.2188 3.90625 10.5938 4.09375ZM7.5625 18.125C7.625 18.3438 7.8125 18.5 8.03125 18.5H15.9375C16.1562 18.5 16.3438 18.3438 16.4062 18.125L18.0625 11.5H5.90625L7.5625 18.125Z" fill="#292929"/>
</svg>
