<svg width="25" height="25" viewBox="0 0 25 25" fill="none" xmlns="http://www.w3.org/2000/svg">
<path d="M20 3.75C21.3672 3.75 22.5 4.88281 22.5 6.25V18.75C22.5 20.1562 21.3672 21.25 20 21.25H5C3.59375 21.25 2.5 20.1562 2.5 18.75V6.25C2.5 4.88281 3.59375 3.75 5 3.75H20ZM20 5.625H5C4.64844 5.625 4.375 5.9375 4.375 6.25V8.75H20.625V6.25C20.625 5.9375 20.3125 5.625 20 5.625ZM5 19.375H8.125V10.625H4.375V18.75C4.375 19.1016 4.64844 19.375 5 19.375ZM10 19.375H20C20.3125 19.375 20.625 19.1016 20.625 18.75V10.625H10V19.375Z" fill="#1F1F1F"/>
</svg>
