<svg width="20" height="20" viewBox="0 0 20 20" fill="none" xmlns="http://www.w3.org/2000/svg">
<path d="M10 13.25C10.9375 13.25 11.75 14.0625 11.75 15C11.75 15.9688 10.9375 16.75 10 16.75C9.03125 16.75 8.25 15.9688 8.25 15C8.25 14.0625 9.03125 13.25 10 13.25ZM10 8.25C10.9375 8.25 11.75 9.0625 11.75 10C11.75 10.9688 10.9375 11.75 10 11.75C9.03125 11.75 8.25 10.9688 8.25 10C8.25 9.0625 9.03125 8.25 10 8.25ZM11.75 5C11.75 5.96875 10.9375 6.75 10 6.75C9.03125 6.75 8.25 5.96875 8.25 5C8.25 4.0625 9.03125 3.25 10 3.25C10.9375 3.25 11.75 4.0625 11.75 5Z" fill="#292929"/>
</svg>
