<svg width="144" height="40" viewBox="0 0 144 40" fill="none" xmlns="http://www.w3.org/2000/svg">
<path d="M7.86253 34.3118C6.76907 34.3118 5.93913 34.0876 5.93913 33.3442C5.93913 32.7267 6.5842 32.4317 7.21747 32.5418L8.73573 32.7935C9.32573 32.8919 9.46733 33.1436 9.46733 33.4268C9.46733 34.0443 8.68067 34.3118 7.86647 34.3118H7.86253ZM7.8232 25.9259C8.65313 25.9259 9.31 26.5159 9.31 27.4285C9.31 28.2702 8.73573 28.9035 7.86253 28.9035C6.98933 28.9035 6.34427 28.2859 6.34427 27.4009C6.32853 26.4884 7.01687 25.9259 7.81927 25.9259H7.8232ZM8.98353 31.4051L6.8084 31.0943C6.12007 30.996 5.67167 30.9409 5.67167 30.6184C5.67167 30.3942 5.86833 30.1818 6.44653 30.3391C6.7966 30.465 7.2332 30.6617 7.92153 30.6617C9.7348 30.6774 11.1941 29.4974 11.1941 27.6841C11.1941 27.0509 11.0131 26.4884 10.6591 26.04C10.9974 25.8433 11.2767 25.5759 11.4733 25.2101C11.67 24.8443 11.7526 24.4509 11.7408 24.0733C11.7133 23.4558 11.0525 23.09 10.5175 23.4007C10.1793 23.5974 9.9 23.8767 9.70333 24.2307C9.6758 24.2739 9.66007 24.3133 9.63253 24.3723C8.95993 24.329 8.5076 24.2189 7.9058 24.2189C5.829 24.2189 4.46413 25.6113 4.49167 27.4206C4.5192 28.6281 5.16427 29.2732 5.475 29.5682C4.71587 29.4856 4 29.9891 4 30.819C4 31.6489 4.7316 32.0423 5.67167 32.2232C4.91253 32.3766 4.02753 32.8289 4.02753 33.8791C4.02753 35.2715 5.65593 35.9874 7.65013 35.9992C9.72693 36.0267 11.6228 35.3109 11.6228 33.415C11.6228 32.1367 10.6827 31.6607 8.98353 31.4051Z" fill="#E98D74"/>
<path d="M17.2981 24.1954C15.0797 24.1954 13.6047 25.812 13.6047 27.9478C13.6047 30.0836 15.2331 31.6845 17.4947 31.6845C18.718 31.6845 19.6305 31.2361 20.2048 30.5045C20.3307 30.3354 20.3464 30.2252 20.2323 30.0836L19.8941 29.6195C19.7682 29.4504 19.6699 29.4661 19.5165 29.5369C19.0523 29.9027 18.4191 30.0718 17.8881 30.0718C16.5979 30.0718 15.9096 29.4661 15.6697 28.7227H19.4889C20.4998 28.7227 20.8499 28.2861 20.8499 27.6135C20.8499 25.8435 19.5873 24.1994 17.2941 24.1994L17.2981 24.1954ZM15.6225 27.3028C15.8034 26.5043 16.3383 25.871 17.3059 25.871C18.2735 25.871 18.7652 26.5436 18.9225 27.3028H15.6225Z" fill="#E98D74"/>
<path d="M27.6678 24.1954C26.6844 24.1954 25.886 24.632 25.351 25.3322V21.092C25.351 20.6554 25.1386 20.447 24.706 20.447H23.3844C23.231 20.447 23.1602 20.5453 23.1602 20.6869C23.1602 20.9662 23.3018 21.2494 23.3018 21.9652V31.3069C23.3018 31.4603 23.3844 31.5468 23.5417 31.5468H25.115C25.2566 31.5468 25.355 31.4642 25.355 31.3069V30.477C25.9292 31.2086 26.7474 31.657 27.7425 31.657C29.5558 31.657 31.0308 30.1544 31.0308 27.9203C31.0308 25.6862 29.5558 24.1994 27.6717 24.1994L27.6678 24.1954ZM27.2351 29.942C26.1377 29.942 25.351 29.1278 25.351 27.9478C25.351 26.7678 26.1377 25.9379 27.2351 25.9379C28.3876 25.9379 29.131 26.7954 29.131 27.9478C29.1152 29.1003 28.3876 29.942 27.2351 29.942Z" fill="#E98D74"/>
<path d="M37.0195 24.1954C34.8719 24.1954 33.1727 25.698 33.1727 27.9439C33.1727 30.1898 34.8719 31.6806 37.0195 31.6806C39.1671 31.6806 40.8545 30.178 40.8545 27.9439C40.8387 25.7098 39.1553 24.1954 37.0195 24.1954ZM37.0195 29.9381C35.867 29.9381 35.0528 29.0964 35.0528 27.9439C35.0528 26.7914 35.867 25.934 37.0195 25.934C38.1719 25.934 38.9704 26.7914 38.9704 27.9439C38.9547 29.0964 38.1562 29.9381 37.0195 29.9381Z" fill="#E98D74"/>
<path d="M46.8371 24.1954C44.6895 24.1954 42.9863 25.698 42.9863 27.9439C42.9863 30.1898 44.6855 31.6806 46.8371 31.6806C48.9886 31.6806 50.6721 30.178 50.6721 27.9439C50.6563 25.7098 48.9729 24.1954 46.8371 24.1954ZM46.8371 29.9381C45.6846 29.9381 44.8704 29.0964 44.8704 27.9439C44.8704 26.7914 45.6846 25.934 46.8371 25.934C47.9895 25.934 48.788 26.7914 48.788 27.9439C48.788 29.0964 47.9738 29.9381 46.8371 29.9381Z" fill="#E98D74"/>
<path d="M58.4809 24.6596C58.2016 24.4196 57.7493 24.1954 57.1475 24.1954C56.29 24.1954 55.6568 24.6714 55.1966 25.2771V24.518C55.1966 24.3764 55.1258 24.2938 54.9842 24.2938H53.3558C53.2417 24.2938 53.1434 24.3921 53.1434 24.518V31.3148C53.1434 31.4564 53.226 31.5547 53.3676 31.5547H54.9842C55.11 31.5547 55.1966 31.4406 55.1966 31.3148V26.9173C55.464 26.3548 55.9282 25.9772 56.5575 25.9772C56.9233 25.9772 57.2616 26.1031 57.5566 26.288C57.6706 26.343 57.8083 26.3312 57.8791 26.2054L58.5832 25.0686C58.6815 24.9152 58.6382 24.8012 58.4848 24.6596" fill="#E98D74"/>
<path d="M65.2114 29.8004C65.1406 29.647 65.0423 29.6588 64.9164 29.7178C64.7355 29.8004 64.5663 29.8712 64.2989 29.8712C63.7246 29.8712 63.5122 29.4503 63.5122 28.8879V26.0913C63.6105 26.1188 63.7521 26.1345 63.9488 26.1345H65.0462C65.1721 26.1345 65.2861 26.0519 65.2861 25.9221V24.5297C65.2861 24.3881 65.2035 24.3055 65.0462 24.3055H63.5437V22.3664C63.5437 22.2405 63.4611 22.1265 63.3313 22.1265H62.9812C62.8396 22.1265 62.7413 22.2523 62.6705 22.3664C62.0372 23.8257 61.5455 24.4314 60.5622 25.2181C60.4363 25.3321 60.4363 25.3715 60.4363 25.5288V25.9064C60.4363 26.0323 60.5347 26.1306 60.6605 26.1306H61.4747V29.0963C61.4747 30.7523 62.4423 31.6805 63.878 31.6805C64.5663 31.6805 65.2271 31.4681 65.648 31.1338C65.7621 31.0512 65.8289 30.9647 65.7621 30.8545L65.2153 29.8004H65.2114Z" fill="#E98D74"/>
<path d="M71.4059 24.1954C69.1875 24.1954 67.7125 25.812 67.7125 27.9478C67.7125 30.0836 69.3409 31.6845 71.6026 31.6845C72.8259 31.6845 73.7384 31.2361 74.3127 30.5045C74.4385 30.3354 74.4543 30.2252 74.3402 30.0836L74.0019 29.6195C73.8761 29.4504 73.7777 29.4661 73.6243 29.5369C73.1602 29.9027 72.5309 30.0718 71.9959 30.0718C70.7058 30.0718 70.0175 29.4661 69.7775 28.7227H73.585C74.5959 28.7227 74.9459 28.2861 74.9459 27.6135C74.9617 25.8435 73.6951 24.1994 71.4059 24.1994V24.1954ZM69.7225 27.3028C69.9034 26.5043 70.4383 25.871 71.4059 25.871C72.3735 25.871 72.8652 26.5436 73.0225 27.3028H69.7225Z" fill="#E98D74"/>
<path d="M81.2665 27.7629L84.189 24.813C84.3699 24.5888 84.2716 24.2938 83.9766 24.2938H82.4032C82.2774 24.2938 82.1908 24.337 82.0925 24.4354L79.5909 26.992V21.092C79.5909 20.6554 79.3785 20.447 78.9458 20.447H77.6242C77.4708 20.447 77.4 20.5453 77.4 20.6869C77.4 20.9662 77.5416 21.2494 77.5416 21.9652V31.3069C77.5416 31.4603 77.6242 31.5468 77.7816 31.5468H79.3392C79.4808 31.5468 79.5791 31.4642 79.5791 31.3069V28.5103L82.4032 31.3895C82.5173 31.5154 82.5842 31.5429 82.714 31.5429H84.3856C84.6649 31.5429 84.779 31.2754 84.6098 31.067L81.2665 27.7669V27.7629Z" fill="#E98D74"/>
<path d="M93.1048 26.6142C93.1481 24.9701 91.854 24.1992 90.1705 24.1992C89.0181 24.1992 88.0623 24.5492 87.3346 24.9701C87.1497 25.0684 87.1104 25.1943 87.1655 25.3359L87.5313 26.2917C87.5863 26.4333 87.7122 26.4884 87.8695 26.4058C88.4871 26.0557 89.1479 25.859 89.7654 25.859C90.5521 25.859 91.0595 26.0714 91.0595 26.9682C87.7437 27.22 86.6227 28.0499 86.6227 29.6075C86.6227 30.9016 87.4251 31.6725 88.8843 31.6725C89.8834 31.6725 90.6111 31.2949 91.2286 30.6184C91.3702 31.1808 91.5944 31.5584 91.7753 31.5584H92.9711C93.1402 31.5584 93.2228 31.4326 93.1953 31.2634C93.0537 29.816 93.0812 28.0892 93.1127 26.6142H93.1048ZM91.0477 29.4108C90.6111 29.8592 90.0368 30.1818 89.4035 30.1818C88.8843 30.1818 88.5343 29.9418 88.5343 29.4108C88.5343 28.6399 89.2659 28.3724 91.0359 28.2584V29.4108H91.0516H91.0477Z" fill="#E98D74"/>
<path d="M102.081 26.6142C102.124 24.9701 100.83 24.1992 99.1467 24.1992C97.9943 24.1992 97.0385 24.5492 96.3108 24.9701C96.1299 25.0684 96.0866 25.1943 96.1417 25.3359L96.5075 26.2917C96.5625 26.4333 96.6884 26.4884 96.8457 26.4058C97.4633 26.0557 98.1241 25.859 98.7416 25.859C99.5283 25.859 100.036 26.0714 100.036 26.9682C96.7199 27.22 95.5989 28.0499 95.5989 29.6075C95.5989 30.9016 96.4013 31.6725 97.8605 31.6725C98.8596 31.6725 99.5873 31.2949 100.205 30.6184C100.346 31.1808 100.571 31.5584 100.752 31.5584H101.947C102.116 31.5584 102.199 31.4326 102.171 31.2634C102.018 29.816 102.046 28.0892 102.089 26.6142H102.081ZM100.012 29.4108C99.5755 29.8592 99.0012 30.1818 98.3679 30.1818C97.8487 30.1818 97.4987 29.9418 97.4987 29.4108C97.4987 28.6399 98.2303 28.3724 100 28.2584V29.4108H100.016H100.012Z" fill="#E98D74"/>
<path d="M110.467 24.6596C110.188 24.4196 109.736 24.1954 109.134 24.1954C108.276 24.1954 107.643 24.6714 107.183 25.2771V24.518C107.183 24.3764 107.112 24.2938 106.971 24.2938H105.342C105.228 24.2938 105.13 24.3921 105.13 24.518V31.3148C105.13 31.4564 105.212 31.5547 105.354 31.5547H106.971C107.096 31.5547 107.183 31.4406 107.183 31.3148V26.9173C107.45 26.3548 107.915 25.9772 108.544 25.9772C108.91 25.9772 109.248 26.1031 109.543 26.288C109.657 26.343 109.795 26.3312 109.865 26.2054L110.57 25.0686C110.668 24.9152 110.625 24.8012 110.471 24.6596" fill="#E98D74"/>
<path d="M117.052 29.8004C116.982 29.647 116.883 29.6588 116.757 29.7178C116.577 29.8004 116.407 29.8712 116.14 29.8712C115.566 29.8712 115.353 29.4503 115.353 28.8879V26.0913C115.452 26.1188 115.593 26.1345 115.79 26.1345H116.887C117.013 26.1345 117.127 26.0519 117.127 25.9221V24.5297C117.127 24.3881 117.045 24.3055 116.887 24.3055H115.385V22.3664C115.385 22.2405 115.302 22.1265 115.172 22.1265H114.822C114.681 22.1265 114.582 22.2523 114.512 22.3664C113.878 23.8257 113.387 24.4314 112.403 25.2181C112.277 25.3321 112.277 25.3715 112.277 25.5288V25.9064C112.277 26.0323 112.376 26.1306 112.502 26.1306H113.316V29.0963C113.316 30.7523 114.283 31.6805 115.719 31.6805C116.407 31.6805 117.068 31.4681 117.489 31.1338C117.603 31.0512 117.67 30.9647 117.603 30.8545L117.056 29.8004H117.052Z" fill="#E98D74"/>
<path d="M128.836 24.1954C126.618 24.1954 125.143 25.812 125.143 27.9478C125.143 30.0836 126.771 31.6845 129.033 31.6845C130.256 31.6845 131.169 31.2361 131.743 30.5045C131.869 30.3354 131.885 30.2252 131.771 30.0836L131.432 29.6195C131.307 29.4504 131.208 29.4661 131.055 29.5369C130.591 29.9027 129.957 30.0718 129.426 30.0718C128.132 30.0718 127.444 29.4661 127.208 28.7227H131.027C132.038 28.7227 132.388 28.2861 132.388 27.6135C132.388 25.8435 131.126 24.1994 128.832 24.1994L128.836 24.1954ZM127.161 27.3028C127.342 26.5043 127.877 25.871 128.844 25.871C129.812 25.871 130.304 26.5436 130.461 27.3028H127.161Z" fill="#E98D74"/>
<path d="M137.292 27.1728C136.619 26.9919 136.085 26.8345 136.085 26.4137C136.085 26.1895 136.254 25.8512 136.997 25.8512C137.642 25.8512 138.287 26.0911 138.653 26.2996C138.779 26.3547 138.905 26.3429 138.991 26.217L139.625 25.2179C139.68 25.1039 139.64 24.9937 139.483 24.9072C138.877 24.5571 138.189 24.1756 137.052 24.1756C135.184 24.1756 134.256 25.1157 134.256 26.3389C134.271 27.5032 135.141 28.1522 136.533 28.5731C137.489 28.8523 137.98 28.9939 137.98 29.4581C137.98 29.7688 137.658 30.0323 137.068 30.0323C136.183 30.0323 135.282 29.6233 135.019 29.4699C134.877 29.3991 134.751 29.4148 134.653 29.5682L134.106 30.4965C134.051 30.6223 134.079 30.7207 134.161 30.7915C134.539 31.0432 135.565 31.6489 137.029 31.6489C138.629 31.6489 139.935 30.9331 139.935 29.4581C139.935 28.2505 139.023 27.633 137.296 27.1689" fill="#E98D74"/>
<path d="M122.586 24.2936H120.997C120.855 24.2936 120.773 24.392 120.773 24.5178V31.6804C120.773 32.3137 120.352 32.648 119.904 32.888C119.778 32.9706 119.723 33.0689 119.805 33.238L120.608 34.6698C120.678 34.7956 120.789 34.8114 120.918 34.7681C122.098 34.2332 122.814 33.4622 122.814 31.8456V24.4982C122.83 24.3841 122.716 24.2858 122.59 24.2858" fill="#E98D74"/>
<path d="M121.831 20.7972C121.17 20.7972 120.635 21.3321 120.635 21.9929C120.635 22.6537 121.17 23.1886 121.831 23.1886C122.492 23.1886 123.023 22.6537 123.023 21.9929C123.023 21.3321 122.488 20.7972 121.831 20.7972Z" fill="#E98D74"/>
<path d="M52.4715 4.35176V16.7693C52.4715 16.9227 52.3574 17.0643 52.1922 17.0643H49.9856C49.8047 17.0643 49.6906 16.9227 49.6906 16.7693V11.7268H43.9047V16.7693C43.9047 16.9227 43.7906 17.0643 43.6254 17.0643H41.4188C41.2379 17.0643 41.1238 16.9227 41.1238 16.7693V4.35176C41.1238 4.18263 41.2379 4.05676 41.4188 4.05676H43.6097C43.7788 4.05676 43.9047 4.19836 43.9047 4.35176V9.22516H49.6906V4.35176C49.6906 4.18263 49.8047 4.05676 49.9738 4.05676H52.1804C52.3496 4.05676 52.4754 4.19836 52.4754 4.35176" fill="#E98D74"/>
<path d="M72.8793 8.67849C72.8793 7.47096 72.1752 6.57022 70.9126 6.57022H68.175V10.771H70.9126C72.191 10.7868 72.8793 9.88602 72.8793 8.67849ZM75.6759 8.67849C75.6759 11.0385 74.1026 13.3002 70.9992 13.3002H68.175V16.7694C68.175 16.9228 68.061 17.0644 67.8958 17.0644H65.6892C65.5082 17.0644 65.3942 16.9385 65.3942 16.7694V4.35182C65.3942 4.18269 65.5082 4.05682 65.6892 4.05682H70.9992C74.1026 4.05682 75.6759 6.30276 75.6759 8.67849Z" fill="#E98D74"/>
<path d="M87.2774 8.67843C87.2774 7.4709 86.5733 6.57016 85.3107 6.57016H82.5731V10.771H85.3107C86.5733 10.7867 87.2774 9.88596 87.2774 8.67843ZM90.074 8.67843C90.074 11.0384 88.5006 13.3001 85.3972 13.3001H82.5731V16.7693C82.5731 16.9227 82.459 17.0643 82.2938 17.0643H80.0872C79.9063 17.0643 79.7922 16.9384 79.7922 16.7693V4.35176C79.7922 4.18263 79.9063 4.05676 80.0872 4.05676H85.3972C88.5006 4.05676 90.074 6.3027 90.074 8.67843Z" fill="#E98D74"/>
<path d="M102.966 14.8578V16.7694C102.966 16.9385 102.852 17.0644 102.671 17.0644H94.4974C94.3283 17.0644 94.2024 16.911 94.2024 16.7694V4.35182C94.2024 4.18269 94.3165 4.05682 94.4974 4.05682H102.49C102.659 4.05682 102.812 4.19842 102.812 4.35182V6.24769C102.812 6.42862 102.671 6.57022 102.49 6.57022H96.9833V9.22522H101.098C101.267 9.22522 101.393 9.33928 101.393 9.52022V11.4318C101.393 11.6128 101.278 11.7268 101.098 11.7268H96.9833V14.551H102.659C102.828 14.551 102.97 14.6926 102.97 14.8617" fill="#E98D74"/>
<path d="M57.4692 16.7811V8.98525C57.4692 8.81611 57.5832 8.69025 57.7642 8.69025H59.8842C60.0534 8.69025 60.1792 8.81611 60.1792 8.98525V16.7811C60.1792 16.9502 60.0376 17.0761 59.8842 17.0761H57.7642C57.5832 17.0761 57.4692 16.9345 57.4692 16.7811Z" fill="#E98D74"/>
<path d="M58.8189 5.12262C58.3823 5.92502 58.4098 6.84936 58.8346 7.59669C59.6764 7.55342 60.4906 7.07749 60.9272 6.27509C61.1671 5.85422 61.2654 5.37435 61.2379 4.92595C61.2104 4.19435 60.408 3.77349 59.7904 4.12749C59.3971 4.36742 59.0588 4.70175 58.8228 5.12262" fill="#E98D74"/>
<path d="M58.8189 5.12268C58.8189 5.12268 58.8347 5.10695 58.8347 5.09515C58.5947 4.67429 58.2722 4.35175 57.8789 4.13935C57.2456 3.77355 56.4589 4.21015 56.4314 4.94175C56.4039 5.39015 56.5179 5.85428 56.7421 6.29088C57.1787 7.09328 57.9929 7.55348 58.8347 7.61248C58.4138 6.86908 58.3863 5.92509 58.8189 5.12662" fill="#E98D74" fill-opacity="0.7"/>
</svg>
