<svg width="20" height="20" viewBox="0 0 20 20" fill="none" xmlns="http://www.w3.org/2000/svg">
<path d="M17.5 3.25V8.25C17.5 8.6875 17.1562 9 16.75 9H11.75C11.3125 9 11 8.6875 11 8.25C11 7.84375 11.3125 7.5 11.75 7.5H14.875C13.9375 5.71875 12.0625 4.5 10 4.5C6.9375 4.5 4.5 6.96875 4.5 10C4.5 13.0625 6.9375 15.5 10 15.5C11.2812 15.5 12.5312 15.0625 13.5 14.25C13.8125 13.9688 14.2812 14.0312 14.5625 14.3438C14.8125 14.6562 14.7812 15.125 14.4688 15.4062C13.2188 16.4375 11.625 17 9.96875 17C6.125 17 3 13.875 3 10C3 6.15625 6.125 3.03125 9.96875 3.03125C12.4688 3.03125 14.75 4.375 16 6.4375V3.25C16 2.84375 16.3125 2.5 16.75 2.5C17.1562 2.5 17.5 2.84375 17.5 3.25Z" fill="#A3A3A3"/>
</svg>
