<svg width="20" height="20" viewBox="0 0 20 20" fill="none" xmlns="http://www.w3.org/2000/svg">
<path d="M10 10C11.0938 10 12 10.9062 12 12C12 13.125 11.0938 14 10 14C8.875 14 8 13.125 8 12C8 10.9062 8.875 10 10 10ZM16.5312 6.0625C16.8125 6.34375 17 6.75 17 7.125V15C17 16.125 16.0938 17 15 17H5C3.875 17 3 16.125 3 15V5C3 3.90625 3.875 3 5 3H12.875C13.25 3 13.6562 3.1875 13.9062 3.4375L16.5312 6.0625ZM7 4.5V7H11.5V4.5H7ZM15.5 15V7.21875C15.5 7.15625 15.4688 7.125 15.4375 7.09375L13 4.625V7.75C13 8.1875 12.6562 8.5 12.25 8.5H6.25C5.8125 8.5 5.5 8.1875 5.5 7.75V4.5H5C4.71875 4.5 4.5 4.75 4.5 5V15C4.5 15.2812 4.71875 15.5 5 15.5H15C15.25 15.5 15.5 15.2812 15.5 15Z" fill="#292929"/>
</svg>
