<svg width="25" height="25" viewBox="0 0 25 25" fill="none" xmlns="http://www.w3.org/2000/svg">
<path d="M5.9375 18.125C5.9375 17.6172 6.32812 17.1875 6.875 17.1875C7.38281 17.1875 7.8125 17.6172 7.8125 18.125C7.8125 18.6719 7.38281 19.0625 6.875 19.0625C6.32812 19.0625 5.9375 18.6719 5.9375 18.125ZM2.5 5C2.5 3.63281 3.59375 2.5 5 2.5H8.75C10.1172 2.5 11.25 3.63281 11.25 5V7.46094L13.2031 5.46875C14.1797 4.49219 15.7812 4.49219 16.7578 5.46875L19.5312 8.24219C20.5078 9.21875 20.5078 10.8203 19.5312 11.7969L17.5391 13.75H20C21.3672 13.75 22.5 14.8828 22.5 16.25V20C22.5 21.4062 21.3672 22.5 20 22.5H6.875C4.45312 22.5 2.5 20.5469 2.5 18.125V5ZM20.625 20V16.25C20.625 15.9375 20.3125 15.625 20 15.625H15.6641L10.6641 20.625H20C20.3125 20.625 20.625 20.3516 20.625 20ZM18.2031 9.57031L15.4297 6.79688C15.1953 6.52344 14.7656 6.52344 14.5312 6.79688L11.25 10.0781V17.4609L18.2031 10.4688C18.4375 10.2344 18.4375 9.80469 18.2031 9.57031ZM6.875 20.625C8.24219 20.625 9.375 19.5312 9.375 18.125V14.375H4.375V18.125C4.375 19.5312 5.46875 20.625 6.875 20.625ZM4.375 12.5H9.375V9.375H4.375V12.5ZM4.375 7.5H9.375V5C9.375 4.6875 9.0625 4.375 8.75 4.375H5C4.64844 4.375 4.375 4.6875 4.375 5V7.5Z" fill="#292929"/>
</svg>
