<svg width="25" height="25" viewBox="0 0 25 25" fill="none" xmlns="http://www.w3.org/2000/svg">
<path d="M21.25 4.6875V7.8125C21.25 8.35938 20.8203 8.75 20.3125 8.75C19.7656 8.75 19.375 8.35938 19.375 7.8125V5.625H13.4375V19.375H15.3125C15.8203 19.375 16.25 19.8047 16.25 20.3125C16.25 20.8594 15.8203 21.25 15.3125 21.25H9.6875C9.14062 21.25 8.75 20.8594 8.75 20.3125C8.75 19.8047 9.14062 19.375 9.6875 19.375H11.5625V5.625H5.625V7.8125C5.625 8.35938 5.19531 8.75 4.6875 8.75C4.14062 8.75 3.75 8.35938 3.75 7.8125V4.6875C3.75 4.17969 4.14062 3.75 4.6875 3.75H20.3125C20.8203 3.75 21.25 4.17969 21.25 4.6875Z" fill="#292929"/>
</svg>
