<svg width="20" height="20" viewBox="0 0 20 20" fill="none" xmlns="http://www.w3.org/2000/svg">
<path d="M3.25 2.5C3.65625 2.5 4 2.84375 4 3.25V6.46875C5.21875 4.375 7.5 3.03125 10 3.03125C13.8438 3.03125 17 6.15625 17 10C17 13.875 13.8438 17 10 17C8.34375 17 6.75 16.4375 5.5 15.4062C5.1875 15.125 5.15625 14.6562 5.40625 14.3438C5.6875 14.0312 6.15625 13.9688 6.46875 14.25C7.4375 15.0625 8.6875 15.5 10 15.5C13.0312 15.5 15.5 13.0625 15.5 10C15.5 6.96875 13.0312 4.5 10 4.5C7.90625 4.5 6.03125 5.71875 5.09375 7.5H8.25C8.65625 7.5 9 7.84375 9 8.25C9 8.6875 8.65625 9 8.25 9H3.25C2.8125 9 2.5 8.6875 2.5 8.25V3.25C2.5 2.84375 2.8125 2.5 3.25 2.5Z" fill="#292929"/>
</svg>
