<svg width="25" height="25" viewBox="0 0 25 25" fill="none" xmlns="http://www.w3.org/2000/svg">
<path d="M20.3125 15C20.8203 15 21.25 15.4297 21.25 15.9375V18.75C21.25 20.8594 19.5703 22.5 17.5 22.5H7.5C5.39062 22.5 3.75 20.8594 3.75 18.75V15.9375C3.75 15.4297 4.14062 15 4.6875 15C5.19531 15 5.625 15.4297 5.625 15.9375V18.75C5.625 19.8047 6.44531 20.625 7.5 20.625H17.5C18.5156 20.625 19.375 19.8047 19.375 18.75V15.9375C19.375 15.4297 19.7656 15 20.3125 15ZM11.8359 2.77344L6.52344 7.73438C6.13281 8.125 6.13281 8.71094 6.48438 9.10156C6.83594 9.49219 7.42188 9.49219 7.8125 9.14062L11.5625 5.625V15.3125C11.5625 15.8594 11.9531 16.25 12.5 16.25C13.0078 16.25 13.4375 15.8594 13.4375 15.3516V5.625L17.1484 9.14062C17.5391 9.49219 18.125 9.49219 18.4766 9.10156C18.6328 8.90625 18.75 8.67188 18.75 8.4375C18.75 8.20312 18.6328 7.96875 18.4375 7.77344L13.125 2.8125C12.7734 2.42188 12.1875 2.42188 11.8359 2.77344Z" fill="#292929"/>
</svg>
