<svg width="20" height="20" viewBox="0 0 20 20" fill="none" xmlns="http://www.w3.org/2000/svg">
<path d="M9.46875 7.78125L7.21875 5.53125C7.0625 5.40625 7 5.21875 7 5C7 4.625 7.3125 4.25 7.75 4.25C7.9375 4.25 8.125 4.34375 8.25 4.5L9.25 5.46875V2.75C9.25 2.34375 9.5625 2 10 2C10.4062 2 10.75 2.34375 10.75 2.75V5.46875L11.7188 4.5C11.8438 4.34375 12.0312 4.25 12.25 4.25C12.625 4.25 13 4.59375 13 5C13 5.21875 12.9062 5.40625 12.75 5.53125L10.5 7.78125C10.4375 7.875 10.25 8 10 8C9.71875 8 9.53125 7.875 9.46875 7.78125ZM10.5 12.2188L12.75 14.5C12.9062 14.625 13 14.8125 13 15C13 15.2188 12.8125 15.75 12.25 15.75C12.0312 15.75 11.8438 15.6875 11.7188 15.5312L10.75 14.5625V17.25C10.75 17.6875 10.4062 18 10 18C9.5625 18 9.25 17.6875 9.25 17.25V14.5625L8.25 15.5312C8.125 15.6875 7.9375 15.75 7.75 15.75C7.34375 15.75 7 15.4375 7 15C7 14.8125 7.0625 14.625 7.21875 14.5L9.46875 12.25C9.65625 12.0312 9.875 12 10 12C10.0938 12 10.3125 12.0312 10.5 12.2188ZM16.25 9.25C16.6562 9.25 17 9.59375 17 10C17 10.4375 16.6562 10.75 16.25 10.75H3.75C3.3125 10.75 3 10.375 3 10C3 9.59375 3.3125 9.25 3.75 9.25H16.25Z" fill="#292929"/>
</svg>
