<svg width="20" height="20" viewBox="0 0 20 20" fill="none" xmlns="http://www.w3.org/2000/svg">
<path d="M13.25 3.25C13.6562 3.25 14 3.59375 14 4C14 4.4375 13.6562 4.75 13.25 4.75H6.75C6.3125 4.75 6 4.4375 6 4C6 3.59375 6.3125 3.25 6.75 3.25H13.25ZM16.25 7.25C16.6562 7.25 17 7.59375 17 8C17 8.4375 16.6562 8.75 16.25 8.75H3.75C3.3125 8.75 3 8.4375 3 8C3 7.59375 3.3125 7.25 3.75 7.25H16.25ZM6 12C6 11.5938 6.3125 11.25 6.75 11.25H13.25C13.6562 11.25 14 11.5938 14 12C14 12.4375 13.6562 12.75 13.25 12.75H6.75C6.3125 12.75 6 12.4375 6 12ZM16.25 15.25C16.6562 15.25 17 15.5938 17 16C17 16.4375 16.6562 16.75 16.25 16.75H3.75C3.3125 16.75 3 16.4375 3 16C3 15.5938 3.3125 15.25 3.75 15.25H16.25Z" fill="#292929"/>
</svg>
