<svg width="20" height="20" viewBox="0 0 20 20" fill="none" xmlns="http://www.w3.org/2000/svg">
<path d="M4.25 3.5C3.8125 3.5 3.5 3.1875 3.5 2.75C3.5 2.34375 3.8125 2 4.25 2H7.25C7.65625 2 8 2.34375 8 2.75C8 3.1875 7.65625 3.5 7.25 3.5H6.5V9.5C6.5 11.4375 8.0625 13 10 13C11.9062 13 13.5 11.4375 13.5 9.5V3.5H12.75C12.3125 3.5 12 3.1875 12 2.75C12 2.34375 12.3125 2 12.75 2H15.75C16.1562 2 16.5 2.34375 16.5 2.75C16.5 3.1875 16.1562 3.5 15.75 3.5H15V9.5C15 12.2812 12.75 14.5 10 14.5C7.21875 14.5 5 12.2812 5 9.5V3.5H4.25ZM16.25 16.5C16.6562 16.5 17 16.8438 17 17.25C17 17.6875 16.6562 18 16.25 18H3.75C3.3125 18 3 17.6875 3 17.25C3 16.8438 3.3125 16.5 3.75 16.5H16.25Z" fill="#A3A3A3"/>
</svg>
