<svg width="20" height="20" viewBox="0 0 20 20" fill="none" xmlns="http://www.w3.org/2000/svg">
<path d="M1.5 4V8C1.5 8.28125 1.71875 8.5 2 8.5H4V10H2C0.875 10 0 9.125 0 8V4C0 2.90625 0.875 2 2 2H6C7.09375 2 8 2.90625 8 4H6.5C6.5 3.75 6.25 3.5 6 3.5H2C1.71875 3.5 1.5 3.75 1.5 4ZM14 18C12.875 18 12 17.125 12 16H13.5C13.5 16.2812 13.7188 16.5 14 16.5H18C18.25 16.5 18.5 16.2812 18.5 16V12C18.5 11.75 18.25 11.5 18 11.5H16V10H18C19.0938 10 20 10.9062 20 12V16C20 17.125 19.0938 18 18 18H14ZM13 5C14.0938 5 15 5.90625 15 7V13C15 14.125 14.0938 15 13 15H7C5.875 15 5 14.125 5 13V7C5 5.90625 5.875 5 7 5H13Z" fill="#292929"/>
</svg>
