<svg width="20" height="20" viewBox="0 0 20 20" fill="none" xmlns="http://www.w3.org/2000/svg">
<path d="M13.4688 9.5625C14.6562 10.25 15.5 11.5312 15.5 13C15.5 15.2188 13.6875 17 11.5 17H4.75C4.3125 17 4 16.6875 4 16.25C4 15.8438 4.3125 15.5 4.75 15.5H5.5V4.5H4.75C4.3125 4.5 4 4.1875 4 3.75C4 3.34375 4.3125 3 4.75 3H11C13.0625 3 14.75 4.6875 14.75 6.71875C14.7812 7.75 14.375 8.6875 13.6875 9.40625C13.625 9.46875 13.5312 9.5 13.4688 9.5625ZM11 4.5H7V9H11C11.625 9 12.1875 8.78125 12.625 8.34375C13.0312 7.90625 13.2812 7.34375 13.25 6.75C13.25 5.5 12.25 4.5 11 4.5ZM11.5 15.5C12.875 15.5 14 14.4062 14 13.0312C14 11.625 12.875 10.5 11.5 10.5H7V15.5H11.5Z" fill="#292929"/>
</svg>
