<svg width="20" height="20" viewBox="0 0 20 20" fill="none" xmlns="http://www.w3.org/2000/svg">
<path d="M6.78125 5.75C7.0625 6.0625 7.03125 6.53125 6.75 6.8125C6.4375 7.09375 5.96875 7.0625 5.6875 6.78125L4.75 5.71875V14.3125L5.6875 13.25C5.96875 12.9688 6.4375 12.9375 6.75 13.2188C7.03125 13.4688 7.0625 13.9688 6.78125 14.2812L4.53125 16.7812C4.40625 16.9375 4.1875 17 4 17C3.78125 17 3.5625 16.9375 3.4375 16.7812L1.1875 14.2812C0.90625 13.9688 0.9375 13.4688 1.21875 13.2188C1.53125 12.9375 2 12.9688 2.28125 13.25L3.25 14.3125V5.71875L2.28125 6.78125C2 7.0625 1.53125 7.09375 1.21875 6.8125C0.9375 6.53125 0.90625 6.0625 1.1875 5.75L3.4375 3.25C3.5625 3.09375 3.78125 3 4 3C4.1875 3 4.40625 3.09375 4.53125 3.25L6.78125 5.75ZM18.25 4.25C18.6562 4.25 19 4.59375 19 5C19 5.4375 18.6562 5.75 18.25 5.75H8.75C8.3125 5.75 8 5.4375 8 5C8 4.59375 8.3125 4.25 8.75 4.25H18.25ZM18.25 9.25C18.6562 9.25 19 9.59375 19 10C19 10.4375 18.6562 10.75 18.25 10.75H8.75C8.3125 10.75 8 10.4375 8 10C8 9.59375 8.3125 9.25 8.75 9.25H18.25ZM8 15C8 14.5938 8.3125 14.25 8.75 14.25H18.25C18.6562 14.25 19 14.5938 19 15C19 15.4375 18.6562 15.75 18.25 15.75H8.75C8.3125 15.75 8 15.4375 8 15Z" fill="#292929"/>
</svg>
