<svg width="25" height="25" viewBox="0 0 25 25" fill="none" xmlns="http://www.w3.org/2000/svg">
<path d="M18.5547 10.625C18.3594 11.0156 17.9297 11.25 17.5 11.25H10C9.53125 11.25 9.10156 11.0156 8.90625 10.625C8.67188 10.2344 8.67188 9.76562 8.90625 9.375L12.6562 3.125C12.8906 2.73438 13.2812 2.5 13.75 2.5C14.1797 2.5 14.5703 2.73438 14.8047 3.125L18.5547 9.375C18.7891 9.76562 18.7891 10.2344 18.5547 10.625ZM13.75 5L11.0938 9.375H16.3672L13.75 5ZM20.9375 13.125C21.7969 13.125 22.5 13.8281 22.5 14.6875V20.3125C22.5 21.2109 21.7969 21.875 20.9375 21.875H15.3125C14.4141 21.875 13.75 21.2109 13.75 20.3125V14.6875C13.75 13.8281 14.4141 13.125 15.3125 13.125H20.9375ZM20.625 15H15.625V20H20.625V15ZM12.5 17.5C12.5 20.2734 10.2344 22.5 7.5 22.5C4.72656 22.5 2.5 20.2734 2.5 17.5C2.5 14.7656 4.72656 12.5 7.5 12.5C10.2344 12.5 12.5 14.7656 12.5 17.5ZM7.5 14.375C5.74219 14.375 4.375 15.7812 4.375 17.5C4.375 19.2578 5.74219 20.625 7.5 20.625C9.21875 20.625 10.625 19.2578 10.625 17.5C10.625 15.7812 9.21875 14.375 7.5 14.375Z" fill="#292929"/>
</svg>
